<svg xmlns="http://www.w3.org/2000/svg" viewBox="0 0 198.64 58.759998" height="58.759998" width="198.64" id="svg2" version="1.1">
  <defs id="defs6"></defs>
  
  <g transform="matrix(1.3333333,0,0,-1.3333333,0,58.76)" id="g8">
    <g transform="scale(0.1)" id="g10">
      <path id="path12" style="fill:#231f20;fill-opacity:1;fill-rule:nonzero;stroke:none" d="M 684.906,15.5273 H 601.684 V 226.516 h 59.476 c 45.121,-3.676 83.453,-11.235 126.227,-28.082 v 64.515 C 745.91,246.602 708.574,238.73 665.219,234.754 h -63.535 v 190.547 l 95.675,0.191 c 58.473,-9.254 94.286,-32.82 127.758,-88.894 v 89.16 h 0.024 l -0.024,5.402 v 2.828 L 525.594,433.375 V 15.5273 7.30859 H 831.809 V 15.5273 118.09 C 798.859,56.3398 761.125,26.8672 684.906,15.5273"></path>
      <path id="path14" style="fill:#231f20;fill-opacity:1;fill-rule:nonzero;stroke:none" d="M 1413.74,433.383 V 7.30859 h 76.09 V 433.383 h -76.09"></path>
      <path id="path16" style="fill:#231f20;fill-opacity:1;fill-rule:nonzero;stroke:none" d="M 1261.63,297.219 1161.62,88.3867 995.102,433.383 H 913.547 L 1128.41,0.00390625 1335.97,433.383 h -68.17 c 16.93,-37.723 12.44,-81.461 -6.17,-136.164"></path>
      <path id="path18" style="fill:#231f20;fill-opacity:1;fill-rule:nonzero;stroke:none" d="M 96.2031,175.027 189.953,355.922 278.668,175.598 Z M 0.00390625,7.30859 H 66.3438 C 49.1367,37.2852 53.7852,78 72.2383,128.781 l 19.6992,38.008 191.1015,0.582 76.695,-160.06241 h 82.172 L 224.605,440.691 0.00390625,7.30859"></path>
    </g>
  </g>
</svg>
