<svg xmlns="http://www.w3.org/2000/svg" fill="none" viewBox="0 0 629 187" height="187" width="629">
<g clip-path="url(#clip0_14201_39311)">
<path fill="white" d="M289.19 179.918H254.065V90.8841H279.185C298.225 92.4454 314.437 95.6101 332.463 102.741V75.5248C314.943 82.4027 299.196 85.7362 280.874 87.4241H254.065V6.99849L294.468 6.91409C319.165 10.8383 334.279 20.7544 348.422 44.4263V6.8297V4.55112V3.36963L221.98 3.6228V183.42H351.25V136.667C337.318 162.702 321.402 175.15 289.233 179.96L289.19 179.918Z"></path>
<path fill="white" d="M629 3.62265H596.873V183.42H629V3.62265Z"></path>
<path fill="white" d="M532.659 61.0514L490.442 149.157L420.107 3.62265H385.658L476.383 186.5L564.027 3.62265H535.235C542.369 19.5305 540.47 38.0124 532.617 61.0936L532.659 61.0514Z"></path>
<path fill="white" d="M0 183.377H27.9903C20.7288 170.719 22.6709 153.545 30.4811 132.109L38.798 116.075L119.476 115.822L151.857 183.377H186.56L94.8629 0.499878L0 183.377ZM40.6133 112.615L80.1712 36.2821L117.618 112.361L40.5711 112.615H40.6133Z"></path>
</g>
<defs>
<clipPath id="clip0_14201_39311">
<rect transform="translate(0 0.5)" fill="white" height="186" width="629"></rect>
</clipPath>
</defs>
</svg>
